/* XPM */
static char *result[] = {
/* columns rows colors chars-per-pixel */
"96 96 47 1 ",
"  c #C5AD7F",
". c #C8AF7F",
"X c #C7B07F",
"o c #C8B07F",
"O c #C6AF81",
"+ c #C9AF81",
"@ c #C7B081",
"# c #CCB484",
"$ c #CFB886",
"% c #CDB688",
"& c #CFB98A",
"* c #D0B785",
"= c #D3BA86",
"- c #D8BF87",
"; c #D1B788",
": c #D4BD8A",
"> c #D8BF89",
", c #D5BE91",
"< c #DAC087",
"1 c #D7C08D",
"2 c #DBC38C",
"3 c #DFC88E",
"4 c #D6C192",
"5 c #DBC593",
"6 c #DEC994",
"7 c #D7C398",
"8 c #DBC799",
"9 c #DECA9A",
"0 c #E0C78C",
"q c #E2CB8E",
"w c #E2CC94",
"e c #E2CD9B",
"r c #E6D096",
"t c #E8D096",
"y c #E5D19C",
"u c #E8D39D",
"i c #DECDA0",
"p c #E2CFA1",
"a c #E5D3A3",
"s c #E8D5A4",
"d c #E7D8A7",
"f c #E8D8A7",
"g c #E6D6A9",
"h c #E9D7A9",
"j c #E7D8A8",
"k c #E9D9AC",
"l c #EADBB1",
/* pixels */
"rrq32<1=*=:,weeep8,&@%%;,6eassuyw3>##o#=<33qqqqqqrrrudday621$oo#X$<<<1===116idduy6<<*o$$#*;:,wew",
"www31<=$==>48eeee5,;%%;:4eeassurw2>=###-<23qqqqqqrrruduur63<*$o#$$$<<1=$=116yduue31<=$o*;;:>2www",
"w331<====:44eeee7,,:;::,6easssye82>>=*=>2335q33333rrryuurw2<<===$$$11==1117iiuyyw32=====:>448wew",
"32<==$$&15eeepe,,,&:,7eeyyssssee82::>>12121122<<<2336qrqw622<2<<1<<<$$1178iyyar3311<>>:35weeeeyy",
"1<<$X$&158ptee8,;;,:,eeuaaaaaue9w,,>132513111<11<<1223qrq3352333311=1$&48idiyy3322>>:>4weeaaauue",
"<=<$11158epe885;::,4weyaaaapeeew,w445562321111<11<<2233qqw33q333311<1146idayrw33<==;:27eeasfseew",
"$=11156etpe88>,,>,4eeeyppe9e9e755,0,432655551151111233qrryye663511111199iayy632====;:>4eusafuwww",
"=11126yyee95,,,>,wweeeee99777,,,,w,2w43666666553222233qrryyye6551111469ydii63111==%;:48eaaaayw5w",
">>25weuape85,>,58wweee687,,,,&::>,0eww5ewew966665323336eyiaye663111139yia994==;##$$=459paayyw655",
"235weyyee555555weweww854:;%%@###;,,weeepeeeeyer633323366iyiyy96631<<36yi9611$##@#$:499paaaeew550",
"33weyuaee8555599weww54>>;#+OO+O#;,weeeaeyyeewwwq33235566eeyyir66311<169651=##@O@%&459yyaaeew5w55",
"38weyyeee555wt9tew85>:;###OOO+#%>,8eepyuyyywww3233225566eeeer63331<<16641;##@@#%&:599i9peee6w5w5",
"5w9eyaeeewwwweeww44,,;&@O   @@%:79epyaeyytwwq0211112356wreq333111==<<111&##@##&:4899999969966666",
"669eaeeaeeewte554,>:;;@@OOOO@&,45eeeretwwqq022>>==11556w33321111=1==11<$####%:475988886966699669",
"769eeeeyeyetew5>::;%%#@@@@@%&778epyayywwq02<-====112353232<---====1<=<11$$&&:,478588876699e99966",
"4766etyyyeee5,>;%######%&&,4799ypeyrwww0<>=;=*=>1223351111$$$$$$===<1<1324444444444446899yyay965",
"4566wryryye8,:*######%&&:479iaaauurww62>-=##$$=123330<>*;*+****=>>2222325558744,,::,,7etyuaye957",
"5666wrryuewe,;#*+#$;::,479iiaaasauww32>=####$$<22322<*;**.*+*;=-2200qq36657444,,,,,,e8epaaaae955",
"969wwryapee5>:;**#=14799iiaaaaaayrw3>=%@.#$=1223332=**++.**->>32q0wqqq6241:&&&&,,,5eeeppaeeew955",
"pyrrtrasaw,>>;;=:>4599pppaaajaaare62=#@@O@$1223322=***++**->0wwwqtwwww32:&&&&&&&,4,eeetpuew8w866",
"wwewwyuuee4>>==1>48eepaaapaaaayrew3>&##@#&:1233<<=**.++*::5weeytwtww0w,>=&&#&&:1466eeepeee8w6699",
"ewwweyyewq2>==1489epppppyyyyrrww631>&&&,442622<1*#.*+*;>4weyeayyeww3,>>==&;:::11566wwww8w8546999",
",5wwtyytw21>>>16eepppppeewwwwwq332:21145666321==##oo**<0wyaagaurwww,>>====;:4253w4weeeww54245899",
">22wwwtwq2=>>2569eppeee96360003333544579py66<<$=o##*=-0trsfgaae984>>>:=;=>:25356wwwwww,4>:>44785",
">,0wtwwq0<<>156paae9965222222233566999iaiy6111$ooX=<233rufdaa9541==:::>>>>,0,ww40www24>>;=,,,,,1",
"222wwwq00<>>269yepe9521>>===<116669yyiaaye311Xo$==-<33wryaaa954=$#:::>,,5,w,w00ww5w52>:;$&:::;:;",
"555wwq00<>>>6699e954>==$o***=11566eiaaaay93<$#$o-<<33366eay954:=&114,4www5000w0w323>>;;*#%%%&%##",
"55wqqw>>>>,066e9651;*#oooooo#$1159eaaaaay61=1<1<2<q<<23456671&::1466eeewwwwwq40022>:;*##########",
"tewq00>>>>225ww541=$##o.XX@@$&1459pagdaer33-<<<3330<<1115531:=:4699yeayyetw0q0>0--=*+#+##O@#@###",
"ttew02>=;>258w641=$$#oooX##&117899ppiayrq3333333333<<111111<=:166euaauuyutttw00>-**#++++##OO#%:&",
"atew5>==:>25ww321=$$***===445899iiyyyyr60qqq003332<<1X111<212169yauuuyttttwwtw02=*+#+++*@@OO@&44",
"aae5,>;=:>25352:=====<<115689iiiiapp6666qqqqqq33321<1111<2<2366yuyuuuttwwteeee4>>**#+#+*##OO&459",
"uy95>$$$=2566332<<=<>>22,w8ee9ee99965223qqqrqq6w653111222333qqrrryrrrrrrrrruuew4>=$$$$==**$$:8ey",
"y951&$#$:256ww33<32<22255,8889e868441123qqqqqr6yee96633233qqqqrrrrrrrrrrrruaaew53>==1<1<21126eaa",
"864=##$&:76eww3332222>44,e88785741====12wwwwryypyere3q3q0qqqqqrqqrqqqqqrruasauwww222223<3369eaaa",
"44&####&16www3322<22>,148,,w4,>:&$&$>12werupyapaiye3wqqqqqrqtqqqqqqqq3qqeysaaautww53qqqqqweeappa",
"&&%#@#%:46rw621<<$===:4455554>:*##$;15wepassssapew53333wr6rrqqqq2<2<::,8epaaaayyrqrqqqqq6yyaa999",
"###O##=466y631==$$$$&1445852>=**##=15eyagsshhaae6333226rerrrqrq02<-*;::49eppaeyyrrrrqqqq6yaaa844",
"O#@##=136rr6654:,:1444555522;;**#=15eaffhshsapew312536eyerr6q2<-<*$$&&,,899eeeuer6q33336eppi84:&",
"@##*>136q3r666587688966w52:**#*;159pahhkkggpp,,>1146pyypyew32=-**##$$;::4899ewww632111599i97,&##",
"##=<23qwwwwweeppppyyyy664>>***:>6pagkkkkggp9,,;;>,9paaaaew62<=*$o**=;>225,5wewww321>=479i974<XoX",
"*=<<qqqrtyyyepppaaapie65>>;;*=,wpakklkkkai95,;;,,79pgaayr622==o$;==212555www7w0521::1779974&=oo$",
"<220qrrreyggsggsappy6511;=*=-4epfkkkkkkap94:,,,,ppgsaaew511===<=>>,066weteeeetw22>24688984&#o===",
"q2qqqrrraghkkkgaaye651=$**:>>weshkkkkgai87,:,,,pghhhaeww5<<===<2,0ttyrryteeww00512156p994:$$o=-<",
"qqqqqrruahkkhsspe85,=;;=::>2weahkkjjppi87,,&,,ppahhsrew022>><223wweeeeewww5002>2>222696541==1<<0",
"qqrqtrfflkkgape5,:;;&$;::28wwyassadpi974,,,,,ipppauewq32<2222qwweeeuew5,,::;;;;;>232354222<<22qq",
"tqqrrufkkkhpp8,,;*%+#&:,8weeyypauyp98744,,,,ippatetwq0022233wwwreeee75,;;;;+##*-=<2211122233qqqq",
"qqrruudlkhpe5,:;#++%;,49eyurtyeep666644:,,48ipppytq00233qqwwwryeeee5,;%##+##***;=2<>==:43qqqqqrr",
"qqttudkkgp94;#####%,48iiapuyewew5555>,>,,,99eeywtw003335wwweyeee7,,;%+#O##*:;><<=:%%%&:5qqqqrqrq",
"qtttadkaa91$##@@#&,59pagadyeew,w555>,,5585eeueewqq002336wweeyee5,,%++++###=>>00<>%#%%&45wrrqqqq3",
"ttttadda91;##@#&:48eaagaayi6w,54755,5,559eweetwqq02222669eee987:;%##+###=:>22505>;@%&,46r6q3qq32",
"tuuuddy6,%#O@#&159paaaaayi6655555555585555wwwwwq02222669eee84,&%#+**:>-2222225,,:::::436w33<<-11",
"tuuddy65=#@@#=16eaahaspe995587757555785ewe40q0w02>2245699984:&####;>>3qqww6844,,,>>,333qw3111111",
"uuudye2$$#@#;15yusaapppe9668587988885755,0422332224256666654;&##*:>55weeee99w8,,742w336331<11414",
"fuuyr311$#$=25yasaaepepe98999999w888,ww04>>>23354245686551>=$&=1>2wwwepayii9eeeew0w0qqq2111146ee",
"rurr621<==126yuyaaeeee,e999ie9e98e05w,>,>>>>2555588666542=;=>>23wweypspgagaapewwwwwwqq3111116iad",
"666621=>-20wwyuupeewe,,p8eppeeew8555>,>>>::456e996696655::>>226wrraaagggsaaaaewww0wq00044466eyaa",
"1111112123qweyrrewwwepppppee8954555>,>;;:,59eeeeii965311222236erydajgkhhhaayewwww000>24569iiyi9i",
"=&;==:46wwwtrrew0056eepppee,,w,,>>,>>;>>:58eepaayi96551<235wryyuasajkjhfaaeewww2>20>244w9ypyye63",
"#$#%::56wwtwew530556epppp88w,,,,;,>;>>,,499epaapi96511224qwwryyyaaddaaaaeeww2>>>>>>>>>4wiyyy9411",
"###&&756rrrq33>>>256eppeee,,,,::;::::>5w9eaaaayy671111233qrrryyuuuuuyrrww0,>;;;*;=>>24weyer511$#",
"@@@&&499rrq32===;>5weeee,,7,:,::>:>2,5,eeayaya9941&11223qrrrrrrrrrrrwww0>>>;#%**;:>,4wwee641&$##",
"#@&&459ew63<==**;25we6e55,,,,&:::4,40wweyuyyy9641&1123wrryuryyrrwwqqq02<>>;;%%;:->>08ww8551$$#@@",
"##&476yyr62<*#*=>20055752,::&,,4555wweeyuyrrw54:;&116eyaudduuurrqq222-=::::::>22404www5411#@XXOO",
"&&149iyyw5<$$X$=<3230554,>&,,,,766reryrwytwww>:;=>,wysssfsssuutrq02<1<$1111416663r666651$##@@@@@",
"1146yyyy611$==$<<<2204,,,,,,,i789wrrrrtttqw00>:=>>weasssfssuuttqq<<<11114556666ww66651111#XX#$$&",
"759iyuyr31$$==<<<1212,4,,,,i9999wrtqrtqq0022>>>>,0epskkssuutttqqq333556669r69www6664111$#X<X&111",
"569yayrw21<<<<<<<<<1>4,,,8iiiiaytwttwqq22-2>2>>2wwesfkssytwtqtqqqq336rpyyyyyr9w6655411$<<1<11114",
"556yyr63<1$$<<<<<$121278iiiipiyyrrwwq2<<>=<=222q6russaee8332233ww6reyyaayuyyyre66843111111111111",
"4456w621=1<<1<=<==11599iigiii9ryerrq2<<===<<2006wyuuuew2>=**:>36rpyauadaayyyeeeii996322<11111&&&",
"11133211=<<2<===1=126epggga9996errrq<=**==122qqwwyetww>*###;:48eyaaddauuyyyy9eyyyyr63333<1111%%#",
"111211<X=<<<==$1$1266yaggii9666ewrr32<--=<<<<22366wwq<;###;:,9iiddjddday9r69699e9yr33531111%$%$%",
"11111$==<<<1<$$$>126eyap885577petetw0<<<<<<->>>>33322=oo#>49pggggjgjaaye966966eerrrq21111#%$##1$",
"121<<X=<<<1<$$$1156eeyee574459pyetq00020q0<-*===<33<==##:8aaklkkjjgaaye65554449wrwq32<$$$@@@#1$1",
"1<1<<1<<<<<<X111559eeyee757589eyew000022<2-=*;*=<2<<==%:7igkllkkjdaie6551114366e6w321$##@@$@$<11",
"11111223<1<o1#1469eeyaapp999eeere05<>>--<=***;;==<<=>>49egllllkkayp6511=111156yyyr311$$$#$$11122",
"111113qq2<$$*<169yppaaaapeypper602>>===:==&#;;;=>>>-226yakllkkhfay651=$$@$115wyayr51$$$$#==11222",
"114336q3<$$o$159yppdaaaaaaarer62>-;;=;=;==&&;;;,222225wyfahhffusy951=&$$$1136rya96111$o$;=11<<22",
"11669332<$o$=56yidddggjsaayew51>*****=:::::,,555565533weyuuueyte964:===>126eyyyyw511====11223222",
"1569r652<o$<16epdggjgjjasaew52=#*..o*=:>445588999ew66qwwwwwwtqww664=&=:116eyyyye61<<=<=<<2222151",
"eeeww00=**::5eaagggjhdaaye82>*##++**;>255899ppppeew532330w0wwwwee951::>24weeeeww621=1=<<12355345",
"eyetw2-**;:59pahjdadaauew2:*#+.#**->205eetpapaaaaeww2222>>>0weeaae6522:,2,>5454522<===1<23668666",
"aayw0>=**-4waahsdaaarrw52=*+++##;>>055wppsssssspee642>1=>>20eepsayw522:>>,,>>,4221<=$115666699ew",
"syyw2>**=2weahsfayy9662>*##+##==>>55eetuspsspppe8741==>=>245epasa9621::,,,,,,>:2====11569w9ey9yy",
"uew>-=;=>weaahhsyy652=##+++#;:455wwteeeutpspee5,:;;;==>125weasspe61=;;;,,,85422>=*#=45999pyyyaya",
"ytw>-==-4wusjaar631>$#OOO#*:46wwwetwtuuptpee85>;%##$*>>25weassae631&;;;,,88841:;=$&=499ayaauyada",
"eww:**->weaaduy621=$$####;,8eerutttptpeept85,>;;#$$=>><wweyaasue6511,:,,,e8,22==$=;49iaadaaaaauu",
"w0>;;*:24yaayy51$#XXX#*>49epyayuupttptee85,>;;;;*==2>0teyyyuuywew64457eee,w51==#$=56yadadadauaur",
",>>=$=126yyry61=#.OO+:,9easssauuueuyyee500<<o<o<-<qqqwtyuuuyytew99986eee944>>=*=;>epahsfdffsuyet",
">:;===136wye62>#XO##:,eeahffapaueaapeeww20oo<o<<<2qqqrtyyuuyyyuuyyeww98841>>>==>,eesghkhfssuewww",
";***=<2qww621==##$>4eeaghaayeyeaasaaew4,--<<<<qqqqqqtttttuusssssaarww4>;$#$*=<22wpsshkhfssuyww2>",
"***=<<2qq622==#===5eepaaaapeweeafhaae00>=-<<<0qqqqrqwwrtyuasssssuye6>:###o#-<23weshhhhffuuwww4>>",
"$$<<123332<2==;>469yaiai9999eepsfsay631<==22qqqqtqtqtttyusssdddye651;&##.##*>0weasshfsyyww63>>:=",
"<1<233q321==>1559epyi774,,,5eessssrw63<=>=<qqqqtqqqttwuusfssyy6611;$####***=>,wpssssarww52><;=**",
"<233qqq<2===>15eyaypi,,%%%,7easssarrq22===<qqqqqqtqtttssfhssyr31=$@@X##$*=;:,5eassstrwqq2=*o*o*#",
"22qqqq032===159eyaypi,&%O%&7ppkksrrqq2<==<<3qqttqqqqtyufhksayw21$#  X##$==-:>7easssurw3<---oo*o*"
};
